PathFileType	4	(X/Y/Z)	 1.9Hzhigh3min.trc
DataRate	CameraRate	NumFrames	NumMarkers	Units	OrigDataRate	OrigDataStartFrame	OrigNumFrames
200	200	10	35	m	200	501	1000
Frame#	Time	C7			LSH			RSH			MAN			RASI			LASI			HIPR			HIPL			RPSI			LPSI			COX			RTHI1			RTHI2			RTHI3			RTHI4			RSHA1			RSHA2			RSHA3			RSHA4			RHEEL			RMET5			RMET1			RTOE			LTHI1			LTHI2			LTHI3			LTHI4			LSHA1			LSHA2			LSHA3			LSHA4			LHEEL			LMET5			LMET1			LTOE			
		X1	Y1	Z1	X2	Y2	Z2	X3	Y3	Z3	X4	Y4	Z4	X5	Y5	Z5	X6	Y6	Z6	X7	Y7	Z7	X8	Y8	Z8	X9	Y9	Z9	X10	Y10	Z10	X11	Y11	Z11	X12	Y12	Z12	X13	Y13	Z13	X14	Y14	Z14	X15	Y15	Z15	X16	Y16	Z16	X17	Y17	Z17	X18	Y18	Z18	X19	Y19	Z19	X20	Y20	Z20	X21	Y21	Z21	X22	Y22	Z22	X23	Y23	Z23	X24	Y24	Z24	X25	Y25	Z25	X26	Y26	Z26	X27	Y27	Z27	X28	Y28	Z28	X29	Y29	Z29	X30	Y30	Z30	X31	Y31	Z31	X32	Y32	Z32	X33	Y33	Z33	X34	Y34	Z34	X35	Y35	Z35	
501	2.5050	-0.350120	1.506428	-0.503678	-0.290751	1.474240	-0.676789	-0.290202	1.492501	-0.340726	-0.234733	1.465883	-0.508704	-0.197606	1.072095	-0.419572	-0.187890	1.079266	-0.590592	-0.257856	1.125958	-0.371206	-0.237491	1.136913	-0.625840	-0.335592	1.109565	-0.437451	-0.328872	1.117726	-0.552964	-0.338036	1.121172	-0.495463	-0.278997	0.894397	-0.330691	-0.276384	0.832491	-0.328114	-0.204781	0.842435	-0.342849	-0.215770	0.901652	-0.343857	-0.305191	0.447147	-0.319298	-0.315873	0.405499	-0.323420	-0.255954	0.397770	-0.330524	-0.249902	0.437704	-0.330590	-0.365167	0.215801	-0.385570	-0.244632	0.107761	-0.327129	-0.209568	0.111069	-0.390750	-0.192500	0.091180	-0.384086	-0.292700	0.864217	-0.678945	-0.289453	0.804877	-0.678630	-0.217157	0.809987	-0.680264	-0.228280	0.870239	-0.682122	-0.336989	0.430561	-0.693720	-0.346953	0.391126	-0.690202	-0.284808	0.382113	-0.690919	-0.282920	0.425821	-0.694492	-0.386911	0.228432	-0.645835	-0.266822	0.113868	-0.694385	-0.230275	0.120603	-0.635931	-0.215261	0.098754	-0.641213	
502	2.5100	-0.349835	1.502554	-0.503330	-0.290567	1.470398	-0.676523	-0.290255	1.488390	-0.340411	-0.234538	1.461846	-0.508397	-0.197682	1.068109	-0.419803	-0.188040	1.075378	-0.590701	-0.257691	1.122049	-0.371213	-0.237620	1.133049	-0.625808	-0.335543	1.105813	-0.437281	-0.329040	1.113938	-0.552836	-0.338147	1.117408	-0.495298	-0.278774	0.890397	-0.330856	-0.276161	0.828497	-0.328286	-0.204590	0.838433	-0.343200	-0.215581	0.897650	-0.344178	-0.304354	0.443236	-0.318990	-0.315033	0.401586	-0.323051	-0.255137	0.393886	-0.330465	-0.249084	0.433818	-0.330560	-0.364714	0.211924	-0.384973	-0.243616	0.104231	-0.326929	-0.208670	0.107458	-0.390492	-0.191516	0.087661	-0.383849	-0.292663	0.860288	-0.678572	-0.289297	0.800962	-0.678253	-0.217025	0.806187	-0.680060	-0.228266	0.866420	-0.681916	-0.336476	0.426460	-0.692943	-0.346368	0.387025	-0.689319	-0.284202	0.378097	-0.690345	-0.282404	0.421791	-0.693964	-0.385889	0.224403	-0.644359	-0.266348	0.109495	-0.693706	-0.229073	0.116605	-0.635756	-0.214170	0.094656	-0.641109	
503	2.5150	-0.349554	1.498439	-0.502965	-0.290324	1.466261	-0.676256	-0.290280	1.483959	-0.340045	-0.234237	1.457579	-0.508099	-0.197796	1.063917	-0.420020	-0.188232	1.071261	-0.590784	-0.257586	1.117905	-0.371232	-0.237779	1.128954	-0.625778	-0.335553	1.101802	-0.437141	-0.329242	1.109884	-0.552735	-0.338303	1.113377	-0.495166	-0.278542	0.886172	-0.331028	-0.275908	0.824270	-0.328468	-0.204373	0.834224	-0.343567	-0.215385	0.893439	-0.344509	-0.303450	0.439135	-0.318713	-0.314161	0.397484	-0.322720	-0.254286	0.389776	-0.330458	-0.248205	0.429695	-0.330562	-0.364361	0.207970	-0.384486	-0.243047	0.100437	-0.326691	-0.208166	0.103434	-0.390237	-0.190974	0.083700	-0.383579	-0.292613	0.856094	-0.678158	-0.289119	0.796781	-0.677839	-0.216871	0.802128	-0.679871	-0.228241	0.862346	-0.681724	-0.335977	0.422178	-0.692085	-0.345826	0.382754	-0.688346	-0.283653	0.373866	-0.689748	-0.281912	0.417530	-0.693413	-0.385013	0.220312	-0.642816	-0.266255	0.104833	-0.692931	-0.228273	0.112224	-0.635491	-0.213525	0.090148	-0.640913	
504	2.5200	-0.349273	1.494083	-0.502582	-0.290015	1.461828	-0.675983	-0.290269	1.479221	-0.339626	-0.233860	1.453073	-0.507800	-0.197949	1.059523	-0.420214	-0.188467	1.066911	-0.590845	-0.257550	1.113536	-0.371263	-0.237971	1.124621	-0.625743	-0.335623	1.097534	-0.437036	-0.329477	1.105561	-0.552665	-0.338503	1.109081	-0.495061	-0.278299	0.881726	-0.331203	-0.275618	0.819816	-0.328659	-0.204123	0.829814	-0.343943	-0.215180	0.889027	-0.344855	-0.302474	0.434842	-0.318461	-0.313255	0.393209	-0.322418	-0.253419	0.385430	-0.330510	-0.247275	0.425338	-0.330626	-0.364150	0.203934	-0.384095	-0.242931	0.096396	-0.326421	-0.208094	0.099008	-0.389999	-0.190902	0.079323	-0.383300	-0.292551	0.851617	-0.677711	-0.288918	0.792323	-0.677386	-0.216695	0.797816	-0.679700	-0.228200	0.858012	-0.681543	-0.335486	0.417728	-0.691171	-0.345326	0.378320	-0.687302	-0.283157	0.369413	-0.689119	-0.281436	0.413047	-0.692826	-0.384310	0.216162	-0.641237	-0.266524	0.099929	-0.692057	-0.227895	0.107481	-0.635112	-0.213346	0.085264	-0.640597	
505	2.5250	-0.348992	1.489488	-0.502185	-0.289672	1.457109	-0.675717	-0.290221	1.474187	-0.339152	-0.233435	1.448339	-0.507479	-0.198137	1.054924	-0.420385	-0.188746	1.062330	-0.590883	-0.257591	1.108947	-0.371306	-0.238204	1.120047	-0.625699	-0.335752	1.093008	-0.436979	-0.329745	1.100973	-0.552628	-0.338744	1.104520	-0.494993	-0.278035	0.877058	-0.331382	-0.275287	0.815139	-0.328849	-0.203831	0.825212	-0.344331	-0.214953	0.884416	-0.345209	-0.301427	0.430364	-0.318246	-0.312323	0.388755	-0.322160	-0.252538	0.380846	-0.330635	-0.246295	0.420740	-0.330745	-0.364140	0.199818	-0.383771	-0.243261	0.092121	-0.326119	-0.208468	0.094203	-0.389799	-0.191315	0.074551	-0.383032	-0.292474	0.846866	-0.677240	-0.288691	0.787589	-0.676900	-0.216494	0.793248	-0.679541	-0.228143	0.853420	-0.681372	-0.334984	0.413117	-0.690204	-0.344862	0.373737	-0.686213	-0.282713	0.364743	-0.688448	-0.280962	0.408348	-0.692196	-0.383818	0.211950	-0.639657	-0.267127	0.094837	-0.691077	-0.227956	0.102408	-0.634591	-0.213640	0.080046	-0.640134	
506	2.5300	-0.348709	1.484654	-0.501779	-0.289295	1.452106	-0.675457	-0.290131	1.468854	-0.338624	-0.233076	1.443346	-0.507126	-0.198360	1.050126	-0.420528	-0.189069	1.057513	-0.590895	-0.257714	1.104134	-0.371360	-0.238484	1.115220	-0.625643	-0.335945	1.088220	-0.436950	-0.330045	1.096114	-0.552621	-0.339027	1.099694	-0.494959	-0.277745	0.872168	-0.331563	-0.274922	0.810249	-0.329025	-0.203491	0.820423	-0.344724	-0.214704	0.879617	-0.345562	-0.300309	0.425702	-0.318062	-0.311371	0.384117	-0.321945	-0.251658	0.376019	-0.330835	-0.245268	0.415888	-0.330930	-0.364373	0.195601	-0.383503	-0.243982	0.087633	-0.325818	-0.209289	0.089063	-0.389661	-0.192197	0.069441	-0.382795	-0.292385	0.841835	-0.676757	-0.288437	0.782577	-0.676388	-0.216269	0.788419	-0.679392	-0.228074	0.848562	-0.681213	-0.334457	0.408354	-0.689191	-0.344421	0.369013	-0.685085	-0.282312	0.359850	-0.687716	-0.280475	0.403423	-0.691507	-0.383574	0.207657	-0.638098	-0.268022	0.089632	-0.689993	-0.228480	0.097034	-0.633891	-0.214406	0.074548	-0.639498	
507	2.5350	-0.348422	1.479580	-0.501371	-0.288887	1.446821	-0.675203	-0.290002	1.463230	-0.338046	-0.232785	1.438093	-0.506744	-0.198616	1.045120	-0.420644	-0.189435	1.052458	-0.590887	-0.257918	1.099090	-0.371425	-0.238813	1.110142	-0.625576	-0.336207	1.083169	-0.436956	-0.330376	1.090988	-0.552646	-0.339345	1.094609	-0.494963	-0.277427	0.867052	-0.331742	-0.274517	0.805138	-0.329180	-0.203095	0.815443	-0.345112	-0.214431	0.874628	-0.345908	-0.299126	0.420854	-0.317925	-0.310413	0.379318	-0.321777	-0.250797	0.370947	-0.331103	-0.244208	0.410786	-0.331185	-0.364896	0.191282	-0.383262	-0.244988	0.082975	-0.325591	-0.210537	0.083652	-0.389594	-0.193525	0.064037	-0.382611	-0.292281	0.836526	-0.676271	-0.288161	0.777275	-0.675859	-0.216020	0.783331	-0.679251	-0.227993	0.843436	-0.681066	-0.333893	0.403449	-0.688147	-0.343990	0.364164	-0.683922	-0.281948	0.354742	-0.686907	-0.279954	0.398280	-0.690748	-0.383611	0.203285	-0.636572	-0.269174	0.084377	-0.688812	-0.229460	0.091413	-0.632980	-0.215631	0.068839	-0.638668	
508	2.5400	-0.348132	1.474260	-0.500964	-0.288451	1.441257	-0.674955	-0.289844	1.457333	-0.337428	-0.232551	1.432578	-0.506339	-0.198906	1.039892	-0.420730	-0.189848	1.047162	-0.590863	-0.258214	1.093814	-0.371496	-0.239193	1.104796	-0.625498	-0.336533	1.077842	-0.436992	-0.330739	1.085597	-0.552702	-0.339700	1.089265	-0.495002	-0.277077	0.861707	-0.331915	-0.274044	0.799801	-0.329337	-0.202637	0.810273	-0.345492	-0.214124	0.869441	-0.346246	-0.297888	0.415826	-0.317832	-0.309459	0.374356	-0.321670	-0.249965	0.365624	-0.331437	-0.243124	0.405429	-0.331514	-0.365732	0.186859	-0.383037	-0.246290	0.078140	-0.325427	-0.212191	0.078020	-0.389600	-0.195269	0.058402	-0.382499	-0.292165	0.830933	-0.675789	-0.287850	0.771691	-0.675315	-0.215745	0.777990	-0.679112	-0.227900	0.838050	-0.680932	-0.333273	0.398405	-0.687071	-0.343565	0.359195	-0.682729	-0.281607	0.349408	-0.686009	-0.279384	0.392923	-0.689910	-0.383956	0.198826	-0.635082	-0.270537	0.079129	-0.687561	-0.230905	0.085573	-0.631823	-0.217288	0.062988	-0.637623	
509	2.5450	-0.347839	1.468689	-0.500565	-0.287993	1.435415	-0.674715	-0.289660	1.451167	-0.336778	-0.232362	1.426801	-0.505916	-0.199228	1.034441	-0.420790	-0.190307	1.041628	-0.590825	-0.258580	1.088296	-0.371569	-0.239622	1.099184	-0.625413	-0.336929	1.072237	-0.437047	-0.331138	1.079946	-0.552778	-0.340088	1.083655	-0.495073	-0.276691	0.856116	-0.332078	-0.273466	0.794230	-0.329518	-0.202111	0.804917	-0.345859	-0.213784	0.864058	-0.346559	-0.296612	0.410619	-0.317796	-0.308524	0.369226	-0.321624	-0.249169	0.360056	-0.331838	-0.242022	0.399810	-0.331894	-0.366893	0.182327	-0.382814	-0.247895	0.073121	-0.325324	-0.214223	0.072210	-0.389684	-0.197406	0.052631	-0.382491	-0.292038	0.825058	-0.675319	-0.287500	0.765829	-0.674769	-0.215441	0.772383	-0.678974	-0.227796	0.832406	-0.680812	-0.332584	0.393235	-0.685954	-0.343133	0.354112	-0.681497	-0.281276	0.343872	-0.685013	-0.278754	0.387356	-0.688987	-0.384625	0.194278	-0.633633	-0.272093	0.073932	-0.686254	-0.232811	0.079553	-0.630404	-0.219353	0.057057	-0.636351	
510	2.5500	-0.347543	1.462857	-0.500178	-0.287513	1.429295	-0.674481	-0.289443	1.444696	-0.336112	-0.232370	1.420707	-0.505474	-0.199585	1.028755	-0.420826	-0.190814	1.035851	-0.590778	-0.259032	1.082520	-0.371632	-0.240098	1.093308	-0.625319	-0.337403	1.066349	-0.437097	-0.331578	1.074030	-0.552872	-0.340517	1.077774	-0.495161	-0.276268	0.850273	-0.332231	-0.272785	0.788421	-0.329723	-0.201513	0.799364	-0.346201	-0.213415	0.858477	-0.346841	-0.295303	0.405228	-0.317804	-0.307619	0.363937	-0.321627	-0.248434	0.354250	-0.332290	-0.240922	0.393934	-0.332338	-0.368355	0.177658	-0.382616	-0.249804	0.067916	-0.325282	-0.216639	0.066306	-0.389903	-0.199888	0.046985	-0.382677	-0.291897	0.818889	-0.674872	-0.287109	0.759689	-0.674231	-0.215098	0.766517	-0.678831	-0.227679	0.826495	-0.680707	-0.331825	0.387945	-0.684793	-0.342685	0.348919	-0.680210	-0.280943	0.338138	-0.683907	-0.278058	0.381583	-0.687973	-0.385617	0.189643	-0.632217	-0.273832	0.068805	-0.684915	-0.235168	0.073381	-0.628699	-0.221804	0.051222	-0.634817	
